<?xml version="1.0" standalone="no"?>
<!DOCTYPE svg PUBLIC "-//W3C//DTD SVG 20010904//EN"
 "http://www.w3.org/TR/2001/REC-SVG-20010904/DTD/svg10.dtd">
<svg version="1.0" xmlns="http://www.w3.org/2000/svg"
 width="300.000000pt" height="188.000000pt" viewBox="0 0 300.000000 188.000000"
 preserveAspectRatio="xMidYMid meet">
<metadata>
Created by potrace 1.10, written by Peter Selinger 2001-2011
</metadata>
<g transform="translate(0.000000,188.000000) scale(0.100000,-0.100000)"
fill="#000000" stroke="none">
<path d="M1258 1751 c-15 -5 -37 -16 -49 -25 -29 -20 -79 -94 -79 -116 0 -9
-13 -28 -28 -41 -35 -31 -62 -73 -62 -98 0 -11 -18 -37 -41 -58 -30 -29 -42
-48 -46 -79 -6 -49 5 -74 111 -234 119 -181 123 -187 171 -210 38 -19 54 -21
98 -15 60 9 118 9 236 0 138 -12 204 19 250 114 15 31 42 71 59 90 18 19 38
53 44 77 8 27 20 46 34 53 30 13 58 90 50 136 -4 19 -20 51 -37 70 -16 18 -44
61 -61 95 -17 34 -37 64 -44 67 -8 3 -23 26 -34 51 -44 98 -91 126 -210 123
-118 -2 -123 -2 -235 3 -55 3 -112 1 -127 -3z m227 -41 c13 -14 16 -28 11 -55
-4 -20 -12 -38 -19 -40 -7 -2 -84 -5 -172 -7 l-161 -3 29 43 c47 70 75 82 193
82 88 0 103 -3 119 -20z m234 7 c23 -8 46 -29 69 -60 18 -27 32 -50 30 -51 -2
-1 -56 0 -120 2 l-117 4 -35 54 c-20 29 -36 56 -36 59 0 10 176 4 209 -8z
m-160 -120 c23 -48 27 -88 10 -120 -7 -12 -63 -103 -125 -202 -62 -99 -116
-193 -119 -208 l-7 -28 -23 33 c-35 52 -47 100 -35 133 14 38 262 435 271 435
4 0 17 -19 28 -43z m-99 -12 c0 -3 -16 -30 -36 -60 l-37 -55 -143 0 c-78 0
-154 -4 -168 -10 -14 -5 -26 -6 -26 -1 0 14 68 98 87 107 10 5 81 11 158 14
77 3 146 7 153 8 6 1 12 0 12 -3z m349 -8 c22 -8 47 -29 69 -60 19 -26 33 -49
31 -50 -2 -1 -56 -1 -121 1 l-116 4 -36 54 c-20 29 -36 56 -36 59 0 10 176 4
209 -8z m-169 -102 c30 -49 35 -95 15 -136 -10 -19 -62 -104 -116 -190 -99
-156 -116 -198 -87 -227 20 -20 -10 -15 -47 8 -41 25 -69 82 -61 122 3 17 62
121 131 231 69 110 125 206 125 214 0 23 18 14 40 -22z m-389 -91 c35 -54 41
-69 31 -82 -25 -35 -52 -92 -52 -109 0 -9 -15 8 -33 38 -18 30 -52 84 -76 122
-24 37 -40 74 -37 82 4 11 21 15 65 15 l59 0 43 -66z m568 -51 c39 -64 69
-123 67 -130 -4 -9 -25 -13 -68 -13 l-63 0 -38 65 c-34 59 -37 69 -28 101 6
20 7 49 4 65 -5 27 -3 29 24 29 27 0 36 -11 102 -117z m112 87 c56 -40 65
-139 16 -187 l-24 -24 -71 114 c-40 63 -72 118 -72 122 0 15 124 -7 151 -25z
m-581 10 c0 -18 -30 -70 -40 -70 -11 0 -50 54 -50 69 0 6 19 11 45 11 25 0 45
-5 45 -10z m-154 -242 c81 -128 160 -245 175 -260 l27 -28 -67 0 c-96 0 -116
16 -228 190 -130 200 -137 214 -123 253 10 30 47 77 60 77 4 0 74 -105 156
-232z m500 50 c13 -25 14 -32 2 -39 -15 -10 -50 -12 -72 -3 -17 7 -9 31 22 66
18 21 27 16 48 -24z m218 -70 c-22 -39 -70 -91 -95 -103 -21 -11 -64 -15 -169
-15 -77 0 -140 2 -140 5 0 2 16 30 36 61 l37 57 131 -5 c72 -3 145 -2 161 2
45 11 47 11 39 -2z m-126 -185 c-48 -68 -83 -83 -195 -83 -80 0 -96 3 -113 20
-23 23 -24 34 -7 74 l12 28 145 -1 c80 0 154 4 165 8 31 13 30 5 -7 -46z"/>
<path d="M524 825 c-15 -11 -18 -30 -17 -133 0 -66 4 -125 7 -131 4 -6 4 -16
0 -23 -4 -6 -8 -59 -8 -116 -1 -96 0 -106 20 -118 33 -22 149 -13 176 13 l20
21 34 -23 c30 -20 44 -22 142 -21 93 2 114 5 147 24 l38 23 36 -26 c46 -31
103 -33 149 -5 30 19 34 19 57 4 13 -8 47 -18 77 -21 45 -4 58 -1 90 20 l36
25 23 -24 c27 -29 83 -32 111 -7 18 16 21 16 47 0 35 -21 79 -21 105 -2 16 12
21 12 40 0 17 -11 60 -14 191 -13 99 0 175 5 183 11 9 7 30 6 67 -3 44 -11 63
-11 95 -1 47 14 84 63 73 96 -3 11 -7 41 -7 66 -1 25 -7 54 -15 63 -11 13 -11
22 -3 39 16 31 13 244 -4 258 -7 5 -27 12 -46 15 -27 5 -41 1 -66 -21 -18 -15
-32 -33 -32 -41 0 -24 -25 -15 -43 16 -10 16 -27 35 -38 41 -24 12 -167 3
-185 -12 -9 -8 -11 -29 -7 -74 3 -35 3 -75 -1 -89 -6 -26 -29 -35 -41 -16 -11
17 -13 115 -2 134 8 16 5 24 -17 42 -24 21 -35 23 -131 21 -78 -2 -108 -6
-114 -16 -8 -12 -15 -12 -48 1 -30 12 -77 14 -238 12 -256 -5 -227 -5 -395 0
l-144 5 -36 -38 -36 -38 -35 37 -34 38 -102 0 c-67 0 -108 -4 -119 -13z m187
-24 c35 -1 37 -3 69 -76 l33 -76 28 68 c16 36 33 71 38 76 5 5 70 10 144 10
108 1 139 -2 159 -15 69 -45 20 -127 -74 -128 -36 0 -38 -2 -38 -31 0 -22 5
-32 20 -36 48 -13 11 -18 -107 -16 -145 2 -144 2 -120 12 15 5 19 22 23 91 6
100 -1 97 -49 -20 -19 -46 -40 -86 -46 -88 -6 -2 -20 18 -32 45 -11 27 -30 71
-44 98 l-23 50 -1 -87 c-1 -76 1 -88 16 -88 9 0 13 -3 9 -7 -9 -10 -196 -11
-196 -2 0 4 7 9 15 13 22 8 22 184 0 192 -8 4 -15 9 -15 13 0 6 50 6 191 2z
m717 -33 c2 -22 -1 -38 -7 -38 -6 0 -11 9 -11 20 0 24 -28 40 -69 40 -30 0
-31 -1 -31 -46 0 -38 3 -45 16 -40 9 3 18 6 20 6 2 0 4 7 4 15 0 8 5 15 10 15
6 0 10 -23 10 -51 0 -31 -4 -48 -10 -44 -5 3 -10 13 -10 21 0 8 -2 14 -4 14
-2 0 -11 3 -20 6 -13 5 -16 -2 -16 -45 0 -50 0 -51 31 -51 41 0 69 16 69 40 0
11 5 20 11 20 6 0 9 -16 7 -37 l-3 -38 -103 0 c-57 0 -106 3 -109 8 -2 4 3 7
11 7 13 0 16 16 16 100 0 84 -3 100 -16 100 -8 0 -13 3 -11 8 3 4 52 7 109 7
l103 0 3 -37z m185 33 c15 0 39 -12 53 -26 21 -21 23 -28 14 -45 -6 -12 -22
-26 -36 -32 l-24 -11 23 -11 c12 -6 27 -27 33 -46 9 -27 17 -35 38 -37 l26 -2
0 100 c0 86 -2 99 -17 99 -9 0 -13 3 -10 7 10 9 117 10 117 1 0 -5 -4 -8 -10
-8 -6 0 -10 -40 -10 -100 0 -60 4 -100 10 -100 6 0 10 -3 10 -7 0 -11 -182
-10 -197 0 -7 4 -15 23 -19 43 -6 35 -35 60 -58 51 -18 -7 -8 -87 11 -87 8 0
12 -3 10 -7 -6 -10 -114 -9 -124 0 -3 4 1 7 10 7 15 0 17 13 17 100 0 84 -3
100 -16 100 -8 0 -13 3 -11 8 5 6 72 8 160 3z m344 -4 c3 -4 -1 -7 -10 -7 -14
0 -17 -12 -17 -76 0 -97 9 -114 60 -114 51 0 60 17 60 114 0 62 -3 76 -16 76
-8 0 -12 5 -9 10 4 7 29 9 63 6 32 -3 71 -5 88 -5 28 -1 33 -7 63 -73 l32 -73
37 75 37 75 42 0 c23 0 45 -3 49 -7 4 -5 0 -8 -9 -8 -15 0 -17 -13 -17 -100 0
-60 4 -100 10 -100 6 0 10 -3 10 -7 0 -5 -25 -8 -55 -8 -49 0 -70 7 -47 17 5
2 12 43 16 92 3 50 4 88 2 85 -3 -3 -23 -47 -44 -99 -22 -52 -45 -96 -51 -98
-6 -2 -19 16 -30 40 -10 24 -30 68 -44 98 l-25 55 -1 -87 c-1 -73 2 -88 15
-88 8 0 12 -4 9 -10 -8 -12 -62 -13 -69 -1 -3 5 1 11 9 15 12 4 15 25 15 101
l0 96 -27 -3 c-28 -3 -28 -4 -33 -89 -3 -51 -11 -93 -19 -102 -19 -23 -76 -32
-121 -18 -50 15 -70 57 -70 145 0 37 -4 66 -10 66 -5 0 -10 3 -10 8 0 9 107 8
117 -1z m-517 -108 c0 -24 -23 -21 -28 4 -2 10 3 17 12 17 10 0 16 -9 16 -21z
m-240 -82 c0 -21 8 -41 20 -52 14 -12 17 -22 10 -29 -6 -6 -15 -4 -27 6 -10 9
-30 20 -45 23 -16 4 -28 13 -28 20 0 7 -2 20 -5 27 -6 15 27 36 58 37 13 1 17
-7 17 -32z m-440 -52 c13 -16 6 -35 -15 -35 -18 0 -28 17 -21 35 7 19 20 19
36 0z m-18 -98 l58 -62 0 58 c0 31 -4 57 -10 57 -5 0 -10 3 -10 8 0 14 219 3
250 -13 37 -19 55 -76 37 -113 -23 -47 -60 -65 -147 -70 -55 -3 -80 -1 -80 7
0 6 7 11 15 11 12 0 15 16 15 85 0 84 0 85 -25 85 -25 0 -25 0 -25 -95 0 -76
-3 -95 -14 -95 -8 0 -41 32 -73 71 l-58 70 -3 -58 c-2 -34 1 -59 7 -61 23 -8
10 -22 -19 -22 -16 0 -30 5 -30 10 0 6 5 10 10 10 6 0 10 35 10 85 0 84 0 85
-25 85 -25 0 -25 -1 -25 -85 0 -50 4 -85 10 -85 6 0 10 -4 10 -10 0 -5 -22
-10 -50 -10 -48 0 -66 12 -35 24 22 8 22 154 0 162 -32 13 -4 19 72 16 l78 -3
57 -62z m447 64 c3 -1 -3 -7 -13 -14 -26 -19 -19 -133 9 -153 25 -18 50 -18
69 2 18 18 23 154 6 154 -5 0 -10 4 -10 9 0 10 55 9 66 -2 4 -4 0 -7 -9 -7
-14 0 -17 -12 -17 -74 0 -69 -2 -76 -26 -95 -31 -25 -74 -27 -113 -6 -36 18
-41 32 -41 111 0 51 -3 64 -16 64 -8 0 -13 3 -11 8 4 5 74 7 106 3z m288 -15
c26 -23 27 -26 11 -42 -20 -20 -40 -10 -36 19 2 18 -3 23 -25 25 -32 4 -58
-13 -51 -32 3 -7 21 -18 42 -25 58 -21 82 -39 82 -65 0 -33 -32 -58 -83 -63
-36 -4 -48 -1 -72 19 -19 17 -26 30 -22 42 10 26 42 15 42 -14 0 -21 5 -25 36
-28 27 -2 38 1 43 13 9 24 1 32 -42 46 -75 24 -94 70 -46 108 36 29 86 27 121
-3z m726 15 c23 -1 27 -5 27 -31 0 -36 -11 -39 -25 -7 -8 17 -18 22 -45 22
-29 0 -36 -4 -38 -23 -2 -13 -1 -30 2 -38 6 -17 36 -7 36 12 0 8 5 14 10 14 6
0 10 -18 10 -40 0 -40 -13 -53 -24 -25 -3 8 -13 15 -21 15 -13 0 -15 -9 -13
-37 3 -36 5 -38 38 -38 27 0 37 5 45 23 14 32 25 27 25 -13 l0 -35 -175 1
c-184 1 -205 6 -205 48 0 22 -19 41 -42 41 -14 0 -18 -8 -18 -35 0 -24 5 -35
15 -35 8 0 15 -4 15 -10 0 -5 -25 -10 -55 -10 -30 0 -55 5 -55 10 0 6 5 10 10
10 6 0 10 35 10 85 0 50 -4 85 -10 85 -5 0 -10 -11 -10 -25 0 -31 -12 -32 -25
-3 -6 13 -18 24 -27 26 -16 3 -18 -6 -18 -82 0 -51 4 -86 10 -86 6 0 10 -4 10
-10 0 -5 -22 -10 -50 -10 -27 0 -50 5 -50 10 0 6 5 10 10 10 6 0 10 35 10 85
0 47 -4 85 -9 85 -23 0 -41 -14 -41 -31 0 -10 -4 -19 -10 -19 -5 0 -10 14 -10
30 l0 30 183 0 c169 0 185 -2 201 -19 23 -25 17 -52 -13 -67 l-23 -12 21 -12
c12 -6 24 -24 28 -41 4 -22 11 -29 29 -29 23 0 24 2 24 85 0 70 -3 85 -16 85
-8 0 -13 3 -10 8 3 6 150 8 269 3z m197 -6 c43 -22 39 -75 -4 -59 -8 3 -14 16
-13 27 2 19 -3 22 -33 22 -28 0 -35 -4 -35 -20 0 -14 12 -24 41 -35 57 -21 74
-38 74 -71 0 -21 -7 -32 -30 -44 -60 -31 -145 -8 -138 38 4 31 33 28 33 -3 0
-22 4 -25 40 -25 30 0 41 4 43 17 2 13 -11 24 -51 42 -59 26 -76 51 -57 86 21
39 81 50 130 25z m-1166 -21 c10 -26 7 -102 -5 -110 -16 -9 -27 13 -27 55 -1
62 17 94 32 55z m459 -83 c2 -10 1 -25 -4 -32 -6 -10 -9 -4 -9 19 0 36 5 42
13 13z"/>
<path d="M614 777 c-3 -8 -4 -52 -2 -98 3 -83 3 -84 31 -87 l27 -3 0 100 0
101 -25 0 c-14 0 -28 -6 -31 -13z"/>
<path d="M950 690 l0 -101 28 3 27 3 0 95 0 95 -27 3 -28 3 0 -101z"/>
<path d="M1077 783 c-4 -3 -7 -28 -7 -55 0 -44 2 -48 24 -48 30 0 49 22 49 57
0 36 -45 68 -66 46z"/>
<path d="M1550 756 c0 -19 -3 -41 -6 -50 -11 -28 43 -20 62 9 15 23 15 27 0
50 -9 14 -25 25 -36 25 -16 0 -20 -7 -20 -34z"/>
<path d="M924 497 c-3 -8 -4 -45 -2 -83 3 -62 5 -69 25 -72 37 -5 63 31 63 87
0 40 -4 53 -22 65 -28 20 -57 21 -64 3z"/>
<path d="M1790 469 c0 -38 1 -40 28 -37 47 5 39 78 -9 78 -16 0 -19 -8 -19
-41z"/>
<path d="M2020 425 c0 -84 0 -85 25 -85 25 0 25 1 25 85 0 84 0 85 -25 85 -25
0 -25 -1 -25 -85z"/>
<path d="M1160 241 c-37 -5 -46 -11 -54 -33 -17 -49 2 -57 122 -55 l106 2 22
39 22 39 16 -31 c20 -38 20 -42 0 -42 -8 0 -12 5 -9 10 3 5 -1 10 -10 10 -9 0
-14 -4 -11 -9 4 -5 0 -11 -6 -14 -7 -3 16 -4 52 -4 36 1 57 3 47 5 -13 3 -15
10 -11 28 5 18 2 24 -10 24 -9 0 -16 4 -16 9 0 17 -40 19 -70 4 -16 -8 -34
-12 -39 -9 -5 4 -12 2 -16 -4 -3 -5 2 -10 12 -11 10 0 13 -3 6 -6 -7 -2 -13
-9 -13 -14 0 -4 7 -6 15 -3 8 4 15 1 15 -5 0 -6 -12 -11 -28 -11 -24 0 -27 4
-27 33 0 26 5 33 25 38 17 5 11 7 -20 6 -25 0 -52 2 -60 5 -8 2 -35 2 -60 -1z
m10 -21 c0 -5 -9 -10 -20 -10 -11 0 -20 -7 -20 -15 0 -8 9 -15 20 -15 11 0 20
-5 20 -11 0 -16 -42 -6 -53 13 -8 12 -7 21 2 32 15 18 51 22 51 6z m69 -3 c6
-8 8 -17 4 -20 -3 -4 0 -13 7 -22 17 -21 1 -19 -23 3 -19 16 -20 16 -14 0 4
-11 2 -18 -6 -18 -8 0 -13 13 -13 35 0 37 23 48 45 22z"/>
<path d="M730 232 c0 -2 5 -13 11 -24 l11 -21 18 23 17 23 5 -36 c3 -26 0 -37
-9 -37 -7 0 -13 6 -13 13 0 9 -3 8 -9 -2 -7 -11 -10 -10 -18 4 -9 16 -11 15
-16 -4 -5 -20 -2 -20 154 -20 148 0 159 1 169 19 7 14 7 20 0 20 -5 0 -10 6
-10 14 0 10 -7 12 -22 8 -21 -5 -21 -6 -2 -13 17 -7 17 -8 1 -8 -10 -1 -16 -5
-12 -11 3 -5 12 -7 20 -3 8 3 15 0 15 -6 0 -6 -13 -11 -28 -11 -25 0 -28 3
-28 35 0 29 4 35 26 37 14 2 -8 4 -47 5 -40 1 -75 -3 -79 -8 -4 -6 -11 -6 -19
1 -10 8 -19 8 -35 0 -11 -6 -26 -7 -33 -3 -11 7 -67 11 -67 5z m135 -32 c8
-16 15 -31 15 -35 0 -11 -28 -5 -33 8 -4 9 -8 8 -16 -3 -18 -27 -22 -3 -4 29
10 17 19 31 20 31 1 0 9 -13 18 -30z m55 19 c0 -8 5 -7 15 1 9 7 19 10 23 6 4
-4 -2 -12 -12 -18 -19 -11 -19 -11 -1 -24 10 -8 16 -17 12 -20 -4 -4 -13 -1
-22 6 -10 8 -15 9 -15 1 0 -6 -4 -11 -10 -11 -5 0 -10 16 -10 35 0 19 5 35 10
35 6 0 10 -5 10 -11z"/>
<path d="M1458 233 c28 -4 47 -23 22 -23 -22 0 -9 -40 18 -54 50 -25 104 18
60 48 -12 9 -24 13 -27 10 -3 -3 1 -9 9 -14 10 -7 11 -10 3 -10 -7 0 -13 -4
-13 -10 0 -5 7 -7 15 -4 8 4 15 1 15 -5 0 -6 -12 -11 -28 -11 -24 0 -27 4 -27
33 0 26 5 33 25 38 14 4 -3 6 -40 6 -36 0 -50 -2 -32 -4z"/>
<path d="M1650 231 c20 -8 20 -64 0 -72 -8 -3 10 -7 40 -7 67 -2 83 7 83 47 0
36 4 37 29 14 10 -9 18 -12 18 -7 -1 25 -20 31 -100 31 -47 0 -78 -3 -70 -6z
m68 -23 l24 -23 -6 23 c-5 15 -3 22 6 22 10 0 13 -10 10 -35 -5 -41 -7 -42
-34 -12 l-20 22 5 -22 c3 -14 0 -23 -7 -23 -8 0 -12 14 -12 35 1 19 3 35 5 35
3 0 16 -10 29 -22z"/>
<path d="M1830 233 c12 -3 15 -13 12 -38 -5 -40 -8 -42 -35 -17 -19 15 -20 16
-14 0 3 -9 1 -18 -5 -20 -6 -2 20 -5 57 -5 38 -1 76 2 85 7 9 5 23 4 33 -2 13
-7 22 -6 33 2 7 7 14 9 14 4 1 -14 40 37 40 51 0 24 -38 4 -50 -26 -7 -16 -15
-29 -19 -29 -3 0 -15 17 -26 38 -20 36 -21 37 -80 38 -33 0 -53 -1 -45 -3z
m91 -19 c17 -21 0 -49 -32 -49 -24 0 -36 23 -25 51 7 19 40 18 57 -2z"/>
<path d="M1880 195 c0 -8 7 -15 15 -15 8 0 15 7 15 15 0 8 -7 15 -15 15 -8 0
-15 -7 -15 -15z"/>
<path d="M1956 232 c6 -4 14 -16 19 -27 8 -20 8 -20 13 0 2 11 9 23 14 26 5 3
-6 6 -24 7 -17 0 -28 -2 -22 -6z"/>
<path d="M2080 202 c13 -23 29 -41 34 -39 15 5 20 47 7 47 -6 0 -11 5 -11 10
0 6 16 10 35 10 19 0 35 -4 35 -10 0 -5 -7 -10 -16 -10 -12 0 -15 -6 -10 -24
4 -18 2 -25 -11 -28 -10 -2 9 -4 42 -4 33 0 48 1 33 4 -24 3 -28 8 -28 37 0
29 4 34 28 38 15 2 -2 5 -38 6 -39 0 -71 -4 -78 -11 -8 -8 -15 -8 -28 3 -13
11 -12 3 6 -29z"/>
<path d="M707 206 c-4 -15 -6 -31 -2 -34 10 -10 16 6 13 35 l-3 28 -8 -29z"/>
<path d="M2225 201 c20 -8 20 -8 0 -13 -18 -5 -18 -6 3 -7 13 -1 22 5 22 14 0
9 -9 15 -22 14 -22 0 -22 -1 -3 -8z"/>
<path d="M2047 167 c-3 -8 4 -14 20 -15 22 -2 23 0 9 13 -18 18 -22 19 -29 2z"/>
</g>
</svg>
